<?xml version="1.0" encoding="UTF-8" standalone="no"?>
<svg width="100px" height="100px" viewBox="0 0 100 100" version="1.1" xmlns="http://www.w3.org/2000/svg" xmlns:xlink="http://www.w3.org/1999/xlink" xmlns:sketch="http://www.bohemiancoding.com/sketch/ns">
    <title>Slice 1</title>
    <description>Created with Sketch (http://www.bohemiancoding.com/sketch)</description>
    <defs></defs>
    <g id="Page 1" fill="#D8D8D8" fill-rule="evenodd">
        <path d="M50,0 C22.3845229,0 0,22.3880597 0,49.9964632 C0,77.6119403 22.3845229,100 50,100 C77.6190139,100 100,77.6119403 100,49.9964632 C100,22.3880597 77.6190139,0 50,0 L50,0 Z M64.5080286,29.6385372 L57.4909811,29.6385372 C56.1010115,29.6385372 54.6968947,31.0921695 54.6968947,32.1708991 L54.6968947,39.3860083 L64.4938813,39.3860083 C64.1012945,44.9175921 63.2948999,49.9787791 63.2948999,49.9787791 L54.650916,49.9787791 L54.650916,81.3397468 L41.766287,81.3397468 L41.766287,49.9787791 L35.4990451,49.9787791 L35.4990451,39.4249133 L41.766287,39.4249133 L41.766287,30.7950767 C41.766287,29.214119 41.4479734,18.6531796 54.9656929,18.6531796 L64.5080286,18.6531796 L64.5080286,29.6385372 L64.5080286,29.6385372 Z M64.5080286,29.6385372" id="Shape" fill="#FFFFFF"></path>
    </g>
</svg>