<?xml version="1.0" encoding="UTF-8" standalone="no"?>
<svg width="30px" height="30px" viewBox="0 0 30 30" version="1.1" xmlns="http://www.w3.org/2000/svg" xmlns:xlink="http://www.w3.org/1999/xlink" xmlns:sketch="http://www.bohemiancoding.com/sketch/ns">
    <title>Slice 1</title>
    <description>Created with Sketch (http://www.bohemiancoding.com/sketch)</description>
    <defs></defs>
    <g id="Page 1" stroke="none" stroke-width="1" fill="none" fill-rule="evenodd">
        <g id="google-circle" fill="#FFFFFF">
            <g id="Page 1">
                <g id="Group">
                    <path d="M12.8992369,13.3713435 C14.3561833,13.3713435 15.5372716,12.5273892 15.5372716,11.4863188 C15.5372716,10.4452483 14.3561833,9.60129397 12.8992369,9.60129397 C11.4422905,9.60129397 10.2612022,10.4452483 10.2612022,11.4863188 C10.2612022,12.5273892 11.4422905,13.3713435 12.8992369,13.3713435 L12.8992369,13.3713435 Z M12.8992369,13.3713435" id="Oval" transform="translate(12.899237, 11.486319) rotate(-105.206375) translate(-12.899237, -11.486319) "></path>
                    <path d="M15,0 C6.715625,0 0,6.71585819 0,15.0005209 C0,23.2851835 6.715625,30 15,30 C23.284375,30 30,23.2851835 30,15.0005209 C30,6.71585819 23.284375,0 15,0 L15,0 L15,0 Z M16.708,11.548 C16.708,13.784 14.615,14.061 14.615,15.012 C14.615,15.963 17.392,16.725 17.392,19.084 C17.392,23.023 12.519,22.801 12.519,22.801 C12.519,22.801 8.308,22.953 8.308,19.782 C8.308,16.609 13.087,16.737 13.332,16.737 C13.272,16.011 12.786,16.131 12.786,15.773 L12.786,14.884 C12.786,14.884 9.17,15.29 9.17,11.789 C9.17,8.286 13.308,8.185 13.308,8.185 L17.392,8.185 C17.392,8.808 15.527,8.588 15.527,8.921 C16.584,9.398 16.708,10.207 16.708,11.548 L16.708,11.548 L16.708,11.548 Z M22.0126954,12.0708008 L22.0126954,13.998291 L20.9653321,13.998291 L20.9653321,12.0708008 L19.0308838,12.0708008 L19.0308838,11.029 L20.9653321,11.029 L20.9653321,9.02404785 L22.0126953,9.02404785 L22.0126954,11.029 L24.0162354,11.029 L24.0162354,12.0708008 L22.0126954,12.0708008 L22.0126954,12.0708008 Z M22.0126954,12.0708008" id="Shape"></path>
                    <path d="M13.0156125,21.8033965 C14.7055942,21.8033965 16.075595,20.8041018 16.075595,19.5714091 C16.075595,18.3387165 14.7055942,17.3394218 13.0156125,17.3394218 C11.3256307,17.3394218 9.95563001,18.3387165 9.95563001,19.5714091 C9.95563001,20.8041018 11.3256307,21.8033965 13.0156125,21.8033965 L13.0156125,21.8033965 Z M13.0156125,21.8033965" id="Oval" transform="translate(13.015613, 19.571409) rotate(-183.881916) translate(-13.015613, -19.571409) "></path>
                </g>
            </g>
        </g>
    </g>
</svg>