<?xml version="1.0" encoding="UTF-8" standalone="no"?>
<svg width="30px" height="30px" viewBox="0 0 30 30" version="1.1" xmlns="http://www.w3.org/2000/svg" xmlns:xlink="http://www.w3.org/1999/xlink" xmlns:sketch="http://www.bohemiancoding.com/sketch/ns">
    <title>google-plus</title>
    <description>Created with Sketch (http://www.bohemiancoding.com/sketch)</description>
    <defs></defs>
    <g id="Page 1" stroke="none" stroke-width="1" fill="none" fill-rule="evenodd">
        <g id="Group">
            <path d="M0,0 L0,30 L30,30 L30,0 L0,0 Z M0,0" id="Rectangle 1" fill="#FFFFFF"></path>
            <path d="M12.0528336,14.0954378 C13.0828129,14.0954378 13.917776,12.9264895 13.917776,11.4845184 C13.917776,10.0425473 13.0828129,8.87359892 12.0528336,8.87359892 C11.0228543,8.87359892 10.1878912,10.0425473 10.1878912,11.4845184 C10.1878912,12.9264895 11.0228543,14.0954378 12.0528336,14.0954378 Z M12.0528336,14.0954378" id="Oval" fill="#CC0000" transform="translate(12.052834, 11.484518) rotate(-15.218936) translate(-12.052834, -11.484518) "></path>
            <path d="M30.0244149,30 L30.0244149,0.00134078072 C30.0244149,0.00134078072 0.0525839746,-0.0016759759 0.0485839746,0.00134078072 L0.0485839746,30 L30.0244149,30 Z M17,11.0531453 L20.0494191,11.0531453 L20.0494191,8 L20.9462432,8 L20.9462432,11.0531453 L24,11.0531453 L24,11.9501085 L20.9462432,11.9501085 L20.9462432,15 L20.0494191,15 L20.0494191,11.9501085 L17,11.9501085 L17,11.0531453 L17,11.0531453 Z M11.936,15.73 L11.936,14.851 C11.936,14.851 8.357,15.253 8.357,11.788 C8.357,8.321 12.453,8.221 12.453,8.221 L16.495,8.221 C16.495,8.837 14.649,8.62 14.649,8.95 C15.695,9.421 15.818,10.221 15.818,11.549 C15.818,13.762 13.747,14.036 13.747,14.978 C13.747,15.92 16.496,16.673 16.496,19.009 C16.496,22.908 11.673,22.688 11.673,22.688 C11.673,22.688 7.505,22.839 7.505,19.7 C7.505,16.559 12.235,16.687 12.478,16.687 C12.417,15.966 11.936,16.084 11.936,15.73 L11.936,15.73 Z M11.936,15.73" id="Shape" fill="#CC0000"></path>
            <path d="M12.1802866,21.6898858 C13.8531364,21.6898858 15.2092489,20.7008952 15.2092489,19.4809133 C15.2092489,18.2609314 13.8531364,17.2719407 12.1802866,17.2719407 C10.5074369,17.2719407 9.15132436,18.2609314 9.15132436,19.4809133 C9.15132436,20.7008952 10.5074369,21.6898858 12.1802866,21.6898858 Z M12.1802866,21.6898858" id="Oval" fill="#CC0000" transform="translate(12.180287, 19.480913) rotate(-183.876199) translate(-12.180287, -19.480913) "></path>
        </g>
    </g>
</svg>