<?xml version="1.0" encoding="utf-8"?>
<!-- Generator: Adobe Illustrator 17.0.0, SVG Export Plug-In . SVG Version: 6.00 Build 0)  -->
<!DOCTYPE svg PUBLIC "-//W3C//DTD SVG 1.1//EN" "http://www.w3.org/Graphics/SVG/1.1/DTD/svg11.dtd">
<svg version="1.1" id="Layer_1" xmlns="http://www.w3.org/2000/svg" xmlns:xlink="http://www.w3.org/1999/xlink" x="0px" y="0px"
	 width="30px" height="30px" viewBox="0 0 30 30" enable-background="new 0 0 30 30" xml:space="preserve">
<circle fill="#99533D" cx="15" cy="15" r="15"/>
<g>
	<path fill="#99533D" d="M22,20.563C22,21.357,21.357,22,20.563,22H8.437C7.643,22,7,21.357,7,20.563V8.437C7,7.643,7.643,7,8.437,7
		h12.126C21.357,7,22,7.643,22,8.437V20.563z"/>
	<path fill="#FFFFFF" d="M21.284,8C21.525,8,22,8.475,22,8.716v12.569C22,21.525,21.525,22,21.284,22H8.716
		C8.475,22,8,21.525,8,21.284V8.716C8,8.475,8.475,8,8.716,8H21 M21.284,6H8.716C7.37,6,6,7.37,6,8.716v12.569
		C6,22.63,7.37,24,8.716,24h12.569C22.63,24,24,22.63,24,21.284V8.716C24,7.37,22.63,6,21.284,6L21.284,6z"/>
</g>
<g>
	<path fill="#FFFFFF" d="M7,12V8.716C7,7.923,7.923,7,8.716,7h12.568C22.076,7,23,7.923,23,8.716V12H7z"/>
	<path fill="#FFFFFF" d="M21.284,8C21.525,8,22,8.475,22,8.716V11H8V8.716C8,8.475,8.475,8,8.716,8H21 M21.284,6H8.716
		C7.37,6,6,7.37,6,8.716V13h18V8.716C24,7.37,22.63,6,21.284,6L21.284,6z"/>
</g>
<path fill="#99533D" d="M22,10.692C22,10.862,21.862,11,21.692,11h-2.384C19.138,11,19,10.862,19,10.692V8.308
	C19,8.138,19.138,8,19.308,8h2.384C21.862,8,22,8.138,22,8.308V10.692z"/>
<g>
	<path fill="#99533D" d="M15.291,18.798c-2.254,0-4.089-1.834-4.089-4.088s1.834-4.089,4.089-4.089s4.089,1.834,4.089,4.089
		S17.545,18.798,15.291,18.798z"/>
	<path fill="#FFFFFF" d="M15.291,11.62c1.703,0,3.089,1.386,3.089,3.089s-1.386,3.089-3.089,3.089s-3.089-1.386-3.089-3.089
		S13.587,11.62,15.291,11.62 M15.291,9.62c-2.811,0-5.089,2.278-5.089,5.089s2.278,5.089,5.089,5.089s5.089-2.278,5.089-5.089
		S18.101,9.62,15.291,9.62L15.291,9.62z"/>
</g>
</svg>
