<?xml version="1.0" encoding="UTF-8" standalone="no"?>
<svg width="30px" height="30px" viewBox="0 0 30 30" version="1.1" xmlns="http://www.w3.org/2000/svg" xmlns:xlink="http://www.w3.org/1999/xlink" xmlns:sketch="http://www.bohemiancoding.com/sketch/ns">
    <title>Slice 1</title>
    <description>Created with Sketch (http://www.bohemiancoding.com/sketch)</description>
    <defs></defs>
    <g id="Page 1" stroke="none" stroke-width="1" fill="none" fill-rule="evenodd">
        <path d="M0,15 C0,23.2835821 6.71641791,30 15,30 C22.5544009,30 28.8000418,24.4155391 29.8441205,17.1519738 C29.9445529,16.6571349 29.9916306,16.1466034 29.9832613,15.6193332 C29.993723,15.4153299 30,15.208188 30,15 C30,6.71641791 23.2856744,0 15,0 C6.71641791,0 0,6.71641791 0,15 Z M0,15" id="Shape" fill="#2CA9E1"></path>
        <path d="M21.1777096,12.1981448 C21.1839866,12.3372855 21.186079,12.4764263 21.186079,12.6166132 C21.186079,16.8996373 17.9272562,21.8375645 11.96722,21.8375645 C10.1364207,21.8375645 8.43430046,21.301925 7,20.3802483 C7.25317339,20.4105873 7.51053145,20.4252336 7.77207421,20.4252336 C9.29006835,20.4252336 10.6877528,19.9084252 11.7977403,19.0380109 C10.3801785,19.0139489 9.18231274,18.0755335 8.76907518,16.7887432 C8.96680151,16.8274515 9.17185103,16.8483749 9.38003906,16.8483749 C9.67401311,16.8483749 9.96066397,16.8075743 10.2337146,16.7343423 C8.75024411,16.4361836 7.63293346,15.1263775 7.63293346,13.5571209 L7.63293346,13.5163203 C8.07023295,13.7569396 8.57030269,13.9044497 9.10175757,13.9211885 C8.23134328,13.3384712 7.65908774,12.3477472 7.65908774,11.2241596 C7.65908774,10.6299344 7.81810573,10.0733715 8.09847956,9.59317896 C9.6959827,11.5547496 12.0854373,12.8436323 14.7782815,12.9806807 C14.7228344,12.7431999 14.6945878,12.4942112 14.6945878,12.2410378 C14.6945878,10.4510392 16.145627,9 17.9356256,9 C18.867764,9 19.7088855,9.39440647 20.2999721,10.0242014 C21.039615,9.87878365 21.7321802,9.6099177 22.3598828,9.23748082 C22.1171712,9.99386246 21.6035012,10.6288883 20.9339517,11.0295718 C21.589901,10.9542475 22.2155112,10.7784907 22.79509,10.5211327 C22.3588367,11.1697587 21.810643,11.7399219 21.1777096,12.1981448 L21.1777096,12.1981448 Z M21.1777096,12.1981448" id="Path" fill="#FFFFFF"></path>
    </g>
</svg>