<?xml version="1.0" encoding="UTF-8" standalone="no"?>
<svg width="100px" height="100px" viewBox="0 0 100 100" version="1.1" xmlns="http://www.w3.org/2000/svg" xmlns:xlink="http://www.w3.org/1999/xlink" xmlns:sketch="http://www.bohemiancoding.com/sketch/ns">
    <title>Slice 1</title>
    <description>Created with Sketch (http://www.bohemiancoding.com/sketch)</description>
    <defs></defs>
    <g id="Page 1" fill="#D8D8D8" fill-rule="evenodd">
        <path d="M50,0 C22.3880597,0 0,22.3880597 0,50 C0,77.6119403 22.3880597,100 50,100 C75.1813363,100 96.0001395,81.3851304 99.4804017,57.1732459 C99.8151765,55.523783 99.9721021,53.8220114 99.9442042,52.0644441 C99.9790766,51.384433 100,50.6939601 100,50 C100,22.3880597 77.6189148,0 50,0 L50,0 Z M73.0157623,40.9296973 C73.0366857,41.3934998 73.0436602,41.8573023 73.0436602,42.324592 C73.0436602,56.6013391 62.1809178,73.0610964 42.3141303,73.0610964 C36.211466,73.0610964 30.5377319,71.2756312 25.7567304,68.2033756 C26.6006417,68.3045055 27.4585019,68.3533268 28.3303111,68.3533268 C33.3902915,68.3533268 38.0492398,66.6306319 41.7491979,63.7292509 C37.0239922,63.6490445 33.0311062,60.5209932 31.6536476,56.231692 C32.3127354,56.3607198 32.9962338,56.4304645 33.6901939,56.4304645 C34.6701074,56.4304645 35.6256103,56.2944623 36.535779,56.0503557 C31.5908774,55.0564932 27.8665086,50.6904729 27.8665086,45.4596178 L27.8665086,45.3236156 C29.3241735,46.12568 30.9910727,46.6173804 32.7625889,46.6731762 C29.861208,44.7307853 27.9536895,41.4283722 27.9536895,37.6830799 C27.9536895,35.7023295 28.4837495,33.8471195 29.4183289,32.2464779 C34.7433394,38.7850467 42.708188,43.0813224 51.6843353,43.5381504 C51.4995118,42.7465476 51.4053564,41.9165853 51.4053564,41.072674 C51.4053564,35.106012 56.2421537,30.2692147 62.2088157,30.2692147 C65.3159436,30.2692147 68.119682,31.5839029 70.0899707,33.6832194 C72.5554471,33.1984935 74.8639978,32.3022737 76.9563398,31.0608174 C76.1473009,33.5820896 74.4350677,35.6988422 72.2032362,37.0344539 C74.3897336,36.7833729 76.4751011,36.1975171 78.4070303,35.3396569 C76.9528526,37.5017436 75.1255405,39.4022876 73.0157623,40.9296973 L73.0157623,40.9296973 Z M73.0157623,40.9296973" id="Shape" fill="#FFFFFF"></path>
    </g>
</svg>