<?xml version="1.0" encoding="UTF-8" standalone="no"?>
<svg width="30px" height="30px" viewBox="0 0 30 30" version="1.1" xmlns="http://www.w3.org/2000/svg" xmlns:xlink="http://www.w3.org/1999/xlink" xmlns:sketch="http://www.bohemiancoding.com/sketch/ns">
    <title>Slice 1</title>
    <description>Created with Sketch (http://www.bohemiancoding.com/sketch)</description>
    <defs></defs>
    <g id="Page 1" stroke="none" stroke-width="1" fill="none" fill-rule="evenodd">
        <path d="M7,4 L7,25 L24,25 L24,4 L7,4 Z M7,4" id="Rectangle 1" fill="#FFFFFF"></path>
        <g id="youtube-circle-30" fill="#BF0900">
            <g id="Page 1">
                <g id="Group">
                    <path d="M13.5769667,19.895 C13.5769667,20.37 13.6059,20.606 13.5749,20.69 C13.4798333,20.944 13.0499667,21.213 12.8825667,20.717 C12.8546667,20.629 12.8794667,20.367 12.8794667,19.918 L12.8743,16.621 L11.7056,16.621 L11.7097333,19.865 C11.7107667,20.363 11.6983667,20.734 11.7138667,20.902 C11.7428,21.199 11.7314333,21.547 12.0156,21.746 C12.5436333,22.117 13.5563,21.689 13.8094667,21.16 L13.8084333,21.836 L14.7508333,21.836 L14.7508333,16.621 L13.5769667,16.621 L13.5769667,19.895 L13.5769667,19.895 Z M13.5769667,19.895" id="Shape"></path>
                    <path d="M11.9360333,14.799 L8.1809,14.793 L8.1809,15.686 L9.3527,15.689 L9.3527,21.84 L10.5276,21.84 L10.5276,15.707 L11.9360333,15.707 L11.9360333,14.799 L11.9360333,14.799 Z M11.9360333,14.799" id="Shape"></path>
                    <path d="M15.2447667,10.836 C15.531,10.836 15.7645333,10.584 15.7645333,10.277 L15.7645333,7.392 C15.7645333,7.085 15.531,6.833 15.2447667,6.833 C14.9595667,6.833 14.725,7.085 14.725,7.392 L14.725,10.277 C14.725,10.584 14.9595667,10.836 15.2447667,10.836 L15.2447667,10.836 L15.2447667,10.836 Z M15.2447667,10.836" id="Shape"></path>
                    <path d="M16.6232333,16.824 L16.6273667,14.797 L15.4545333,14.799 L15.4483333,21.793 L16.4134667,21.779 L16.5013,21.343 C17.7351,22.445 18.5101,21.691 18.5080333,20.368 L18.5049333,17.643 C18.5049333,16.605 17.7061667,15.984 16.6232333,16.824 L16.6232333,16.824 L16.6232333,16.824 Z M17.6359,20.568 C17.6359,20.793 17.4044333,20.978 17.1213,20.978 C16.8392,20.978 16.6087667,20.792 16.6087667,20.568 L16.6087667,17.507 C16.6087667,17.28 16.8392,17.095 17.1213,17.095 C17.4044333,17.095 17.6359,17.281 17.6359,17.507 L17.6359,20.568 L17.6359,20.568 Z M17.6359,20.568" id="Shape"></path>
                    <path d="M21.3032,20.014 C21.3021667,20.047 21.3011333,20.086 21.3011333,20.129 L21.3011333,20.608 C21.3011333,20.864 21.0841333,21.073 20.8196,21.073 L20.6470333,21.073 C20.3825,21.073 20.1655,20.864 20.1655,20.608 L20.1655,20.555 L20.1655,20.03 L20.1655,19.35 L22.1825667,19.35 L22.1825667,18.61 C22.1825667,18.071 22.1681,17.53 22.1226333,17.221 C21.9779667,16.244 20.5705667,16.088 19.8586,16.588 C19.6354,16.746 19.4649,16.955 19.3657,17.234 C19.2654667,17.517 19.2158667,17.9 19.2158667,18.386 L19.2158667,20.011 C19.2158667,22.714 22.5855667,22.331 22.1836,20.007 L21.3032,20.014 L21.3032,20.014 Z M20.1861667,17.816 C20.1861667,17.537 20.4228,17.308 20.7100667,17.308 L20.7813667,17.308 C21.0696667,17.308 21.3063,17.537 21.3063,17.816 L21.2939,18.445 L20.1820333,18.445 L20.1861667,17.816 L20.1861667,17.816 Z M20.1861667,17.816" id="Shape"></path>
                    <path d="M14.9994789,0.012 C6.71495571,0.012 0,6.72672243 0,15.0099157 C0,23.294151 6.71495571,30.012 14.9994789,30.012 C23.2840021,30.012 30,23.2951932 30,15.0099157 C30,6.72672243 23.2829599,0.012 14.9994789,0.012 L14.9994789,0.012 L14.9994789,0.012 Z M17.5,6 L18.9513768,6 L18.9513768,10.5858696 C18.9513768,10.8347826 19.2120948,11.0380435 19.5299756,11.0380435 C19.8478564,11.0380435 20.1085744,10.8336957 20.1085744,10.5858696 L20.1085744,6 L21.5,6 L21.5,11.8934783 L19.7335308,11.8934783 L19.7628093,11.4054348 C19.6429069,11.6032609 19.4951203,11.751087 19.3194493,11.851087 C19.1437783,11.951087 18.9402231,12 18.711572,12 C18.450854,12 18.2333566,11.9532609 18.0632625,11.8576087 C17.8917741,11.7619565 17.7649007,11.6369565 17.682642,11.4815217 C17.6003834,11.3228261 17.5515859,11.1586957 17.5306727,10.9891304 C17.5111537,10.8173913 17.5,10.4815217 17.5,9.97391304 L17.5,6 L17.5,6 Z M13.7951888,6.27719359 C14.094554,6.0930874 14.4767792,6 14.9432008,6 C15.3347812,6 15.6702305,6.06102396 15.9508854,6.17790036 C16.2328767,6.29477676 16.4493819,6.44888812 16.6004009,6.63609722 C16.7540929,6.82640924 16.8583361,7.02189278 16.9144671,7.22151353 C16.9719345,7.4232029 17,7.7283227 17,8.13894156 L17,9.55697294 C17,10.0782624 16.9719345,10.4599207 16.9198129,10.7040165 C16.8690277,10.9460438 16.7581022,11.1725565 16.5870364,11.3845889 C16.417307,11.5924841 16.1994654,11.7507326 15.934848,11.8489916 C15.6675576,11.952422 15.3615102,12 15.0167056,12 C14.6304711,12 14.3057133,11.9596621 14.0370865,11.8727806 C13.7684597,11.785899 13.5613097,11.6566109 13.4129636,11.4828478 C13.263281,11.3111532 13.1590378,11.0991208 13.0948881,10.855025 C13.0307384,10.6109292 13,10.2406482 13,9.75038786 L13,8.26305809 C13,7.72521979 13.0574674,7.30529219 13.1724023,7.00224099 C13.2886736,6.70332701 13.4944871,6.45923117 13.7951888,6.27719359 L13.7951888,6.27719359 L13.7951888,6.27719359 Z M10.8371333,4.008 L11.6235,6.66 L12.3995333,4.015 L13.7511333,4.015 L12.2910333,7.576 L12.29,11.736 L11.0541333,11.736 L11.0520667,7.578 L9.5,4.008 L10.8371333,4.008 L10.8371333,4.008 Z M24,21.4372362 C24,22.8463021 22.7478282,24 21.2190138,24 L9.78098617,24 C8.25009177,24 7,22.8463021 7,21.4372362 L7,15.5607451 C7,14.1526886 8.25009177,13 9.78098617,13 L21.2190138,13 C22.7478282,13 24,14.1536979 24,15.5607451 L24,21.4372362 L24,21.4372362 Z M24,21.4372362" id="Shape"></path>
                </g>
            </g>
        </g>
    </g>
</svg>