<?xml version="1.0" encoding="UTF-8" standalone="no"?>
<svg width="30px" height="29px" viewBox="0 0 30 29" version="1.1" xmlns="http://www.w3.org/2000/svg" xmlns:xlink="http://www.w3.org/1999/xlink" xmlns:sketch="http://www.bohemiancoding.com/sketch/ns">
    <title>Slice 1</title>
    <description>Created with Sketch (http://www.bohemiancoding.com/sketch)</description>
    <defs></defs>
    <g id="Page 1" fill="#D8D8D8" fill-rule="evenodd">
        <g id="Group" fill="#000000">
            <path d="M13.224,20.102 C13.224,20.577 13.251,20.813 13.222,20.897 C13.13,21.151 12.714,21.42 12.552,20.924 C12.525,20.836 12.549,20.574 12.549,20.125 L12.544,16.828 L11.413,16.828 L11.417,20.072 C11.417,20.57 11.405,20.941 11.421,21.109 C11.448,21.406 11.438,21.754 11.712,21.953 C12.224,22.324 13.204,21.896 13.448,21.367 L13.448,22.043 L14.36,22.043 L14.36,16.828 L13.223,16.828 L13.223,20.102 L13.224,20.102 Z M13.224,20.102" id="Shape" fill="#FFFFFF"></path>
            <path d="M11.636,15.006 L8.002,15 L8.002,15.893 L9.136,15.896 L9.136,22.047 L10.272,22.047 L10.272,15.914 L11.636,15.914 L11.636,15.006 Z M11.636,15.006" id="Shape" fill="#FFFFFF"></path>
            <path d="M14.838,11.043 C15.114,11.043 15.341,10.791 15.341,10.484 L15.341,7.6 C15.341,7.293 15.114,7.041 14.838,7.041 C14.562,7.041 14.335,7.293 14.335,7.6 L14.335,10.485 C14.335,10.791 14.562,11.043 14.838,11.043 L14.838,11.043 Z M14.838,11.043" id="Shape" fill="#FFFFFF"></path>
            <path d="M16.172,17.031 L16.176,15.004 L15.041,15.006 L15.034,22 L15.969,21.986 L16.054,21.55 C17.248,22.652 17.998,21.898 17.995,20.575 L17.993,17.85 C17.993,16.812 17.22,16.191 16.172,17.031 L16.172,17.031 Z M17.151,20.775 C17.151,21 16.927,21.185 16.653,21.185 C16.381,21.185 16.157,20.999 16.157,20.775 L16.157,17.714 C16.157,17.487 16.381,17.302 16.653,17.302 C16.927,17.302 17.151,17.488 17.151,17.714 L17.151,20.775 L17.151,20.775 Z M17.151,20.775" id="Shape" fill="#FFFFFF"></path>
            <path d="M20.701,20.221 C20.7,20.254 20.699,20.293 20.699,20.336 L20.699,20.815 C20.699,21.071 20.489,21.28 20.233,21.28 L20.065,21.28 C19.809,21.28 19.6,21.071 19.6,20.815 L19.6,20.762 L19.6,20.237 L19.6,19.557 L21.551,19.557 L21.551,18.817 C21.551,18.278 21.537,17.737 21.493,17.428 C21.353,16.451 19.991,16.295 19.303,16.795 C19.086,16.953 18.922,17.162 18.825,17.441 C18.728,17.724 18.679,18.107 18.679,18.593 L18.679,20.218 C18.679,22.921 21.941,22.538 21.552,20.214 L20.701,20.221 L20.701,20.221 Z M19.62,18.023 C19.62,17.744 19.849,17.515 20.127,17.515 L20.196,17.515 C20.475,17.515 20.704,17.744 20.704,18.023 L20.692,18.652 L19.616,18.652 L19.62,18.023 L19.62,18.023 Z M19.62,18.023" id="Shape" fill="#FFFFFF"></path>
            <path d="M15.038,0.219 C7.089,0.219 0.646,6.662 0.646,14.61 C0.646,22.559 7.088,29.005 15.038,29.005 C22.988,29.005 29.432,22.56 29.432,14.61 C29.432,6.662 22.987,0.219 15.038,0.219 L15.038,0.219 Z M17.05,6.352 L18.091,6.352 L18.091,10.571 C18.091,10.8 18.279,10.987 18.507,10.987 C18.735,10.987 18.921,10.799 18.921,10.571 L18.921,6.352 L19.919,6.352 L19.919,11.774 L18.652,11.774 L18.673,11.325 C18.587,11.507 18.482,11.643 18.356,11.735 C18.23,11.827 18.084,11.872 17.919,11.872 C17.732,11.872 17.577,11.829 17.454,11.741 C17.331,11.653 17.24,11.538 17.182,11.395 C17.122,11.249 17.087,11.098 17.073,10.942 C17.059,10.784 17.051,10.475 17.051,10.008 L17.051,6.352 L17.05,6.352 Z M13.937,6.408 C14.162,6.23 14.447,6.14 14.796,6.14 C15.089,6.14 15.339,6.199 15.55,6.312 C15.761,6.425 15.923,6.574 16.036,6.755 C16.15,6.939 16.228,7.128 16.27,7.321 C16.313,7.516 16.334,7.811 16.334,8.208 L16.334,9.579 C16.334,10.083 16.313,10.452 16.273,10.688 C16.235,10.922 16.152,11.141 16.024,11.346 C15.897,11.547 15.734,11.7 15.537,11.795 C15.336,11.895 15.107,11.941 14.849,11.941 C14.56,11.941 14.317,11.902 14.116,11.818 C13.916,11.734 13.76,11.609 13.649,11.441 C13.537,11.275 13.459,11.07 13.412,10.834 C13.363,10.598 13.34,10.24 13.34,9.766 L13.34,8.328 C13.34,7.808 13.383,7.402 13.469,7.109 C13.558,6.82 13.712,6.584 13.937,6.408 L13.937,6.408 Z M10.617,4.215 L11.378,6.867 L12.13,4.222 L13.438,4.222 L12.025,7.783 L12.024,11.943 L10.828,11.943 L10.826,7.785 L9.324,4.215 L10.617,4.215 L10.617,4.215 Z M23.212,21.414 C23.212,22.81 22.007,23.953 20.538,23.953 L9.54,23.953 C8.067,23.953 6.865,22.81 6.865,21.414 L6.865,15.592 C6.865,14.197 8.067,13.055 9.54,13.055 L20.538,13.055 C22.007,13.055 23.212,14.198 23.212,15.592 L23.212,21.414 L23.212,21.414 Z M23.212,21.414" id="Shape" fill="#FFFFFF"></path>
        </g>
    </g>
</svg>